<svg xmlns="http://www.w3.org/2000/svg" xmlns:xlink="http://www.w3.org/1999/xlink" width="450" zoomAndPan="magnify" viewBox="0 0 337.5 74.999997" height="100" preserveAspectRatio="xMidYMid meet" version="1.0"><defs><clipPath id="b204f2bad4"><path d="M 5.667969 0.0546875 L 329.1875 0.0546875 L 329.1875 74.945312 L 5.667969 74.945312 Z M 5.667969 0.0546875 " clip-rule="nonzero"/></clipPath></defs><g clip-path="url(#b204f2bad4)"><path fill="#e7bbab" d="M 328.453125 50.53125 C 310.796875 48.25 293.773438 54.550781 277.238281 59.910156 C 260.253906 65.414062 242.976562 69.417969 225.011719 68.675781 C 208.964844 68.023438 193.175781 63.625 179.773438 54.640625 C 184.972656 49.789062 189.714844 44.390625 193.863281 38.667969 C 199.152344 31.371094 203.296875 23.183594 205.378906 14.382812 C 206.195312 10.976562 207.046875 6.777344 205.125 3.570312 C 203.082031 0.183594 199.042969 0.113281 195.78125 1.617188 C 191.871094 3.425781 188.648438 6.867188 185.785156 9.980469 C 182.761719 13.277344 180.027344 16.882812 177.746094 20.738281 C 176.859375 22.242188 176.0625 23.765625 175.300781 25.320312 C 173.652344 18.347656 169.8125 12.101562 164.054688 7.738281 C 161.175781 5.546875 157.390625 3.265625 153.695312 4.855469 C 151.140625 5.960938 149.800781 8.625 149.347656 11.25 C 148.171875 17.949219 151.269531 25.175781 154.3125 30.988281 C 157.824219 37.726562 162.550781 43.8125 168.039062 49.042969 C 170.210938 51.128906 172.492188 53.027344 174.828125 54.804688 C 173.816406 55.65625 172.78125 56.488281 171.734375 57.304688 C 164.617188 62.789062 156.59375 67.117188 147.828125 69.273438 C 138.699219 71.5 129.140625 71.429688 119.886719 70.160156 C 100.726562 67.515625 82.777344 60.039062 64.089844 55.402344 C 45.109375 50.691406 23.902344 48.121094 5.832031 57.410156 C 5.667969 57.503906 5.8125 57.71875 5.976562 57.648438 C 10.410156 55.746094 15.085938 54.316406 19.847656 53.480469 C 24.664062 52.628906 29.589844 52.628906 34.460938 52.792969 C 44.296875 53.136719 53.964844 55.203125 63.402344 57.863281 C 82.722656 63.332031 101.375 71.335938 121.460938 73.746094 C 131.292969 74.921875 141.398438 74.6875 150.960938 71.933594 C 159.941406 69.363281 167.984375 64.601562 175.15625 58.660156 C 175.933594 58.007812 176.695312 57.355469 177.457031 56.6875 C 203.042969 74.289062 237.074219 74.761719 266.519531 66.320312 C 286.835938 60.507812 306.722656 50.148438 328.453125 52.070312 C 329.503906 52.214844 329.449219 50.65625 328.453125 50.53125 Z M 152.828125 21.644531 C 151.632812 18.402344 150.851562 14.960938 151.578125 11.503906 C 152.429688 7.484375 155.507812 5.546875 159.4375 7.429688 C 167.042969 11.105469 172.765625 19.34375 174.414062 27.496094 C 174.523438 28.019531 175.371094 28.144531 175.609375 27.65625 C 179.449219 19.671875 185.207031 12.355469 191.835938 6.523438 C 194.515625 4.167969 200.238281 0.078125 203.226562 4.222656 C 205.5625 7.464844 203.769531 12.753906 202.753906 16.15625 C 200.292969 24.398438 195.710938 32.003906 190.402344 38.742188 C 186.417969 43.773438 181.964844 48.539062 177.128906 52.828125 C 166.355469 44.933594 157.460938 34.265625 152.828125 21.644531 Z M 152.828125 21.644531 " fill-opacity="1" fill-rule="nonzero"/></g></svg>