<svg xmlns="http://www.w3.org/2000/svg" xmlns:xlink="http://www.w3.org/1999/xlink" width="500" zoomAndPan="magnify" viewBox="0 0 375 374.999991" height="500" preserveAspectRatio="xMidYMid meet" version="1.0"><path fill="#ffffff" d="M 203.886719 276.710938 C 205.066406 275.53125 205.066406 273.644531 203.964844 272.464844 L 159.164062 221.296875 C 158.613281 220.589844 157.75 220.277344 156.808594 220.199219 C 155.941406 220.199219 155.078125 220.589844 154.449219 221.21875 L 129.0625 248.886719 L 131.339844 152.050781 C 143.523438 133.421875 149.890625 112.042969 150.28125 90.507812 L 154.054688 86.578125 L 142.03125 212.417969 L 148.316406 213.046875 L 161.128906 78.246094 C 161.285156 76.910156 160.5 75.652344 159.320312 75.101562 C 158.144531 74.550781 156.648438 74.789062 155.785156 75.730469 L 150.125 81.625 C 149.183594 65.511719 144.859375 49.480469 137.15625 34.703125 L 134.328125 29.199219 L 134.328125 29.042969 C 149.8125 17.09375 168.125 10.019531 187.617188 8.527344 L 189.269531 19.609375 C 192.804688 43.035156 211.746094 60.875 235.25 63.15625 C 236.898438 63.3125 238.550781 63.390625 240.203125 63.390625 C 261.816406 63.390625 281.308594 49.792969 288.699219 29.121094 L 292.46875 18.511719 C 317.9375 25.425781 339.867188 42.40625 352.914062 65.433594 L 367.53125 91.214844 L 331.140625 121.242188 L 311.019531 90.507812 C 310.3125 89.40625 308.898438 88.855469 307.640625 89.171875 C 306.382812 89.484375 305.359375 90.585938 305.28125 91.921875 L 296.792969 180.976562 L 303.082031 181.605469 L 310.707031 101.511719 L 327.839844 127.683594 C 328.3125 128.472656 329.097656 128.941406 329.960938 129.101562 C 330.828125 129.257812 331.769531 129.023438 332.398438 128.394531 L 373.507812 94.4375 C 374.6875 93.496094 375 91.765625 374.214844 90.429688 L 358.257812 62.367188 C 343.875 37.058594 319.429688 18.589844 291.132812 11.75 C 290.976562 11.75 290.820312 11.671875 290.664062 11.671875 L 190.449219 2.082031 C 190.289062 2.082031 190.132812 2.082031 189.976562 2.082031 C 169.382812 3.027344 149.8125 9.863281 133.226562 21.890625 L 130.949219 4.832031 C 130.867188 3.96875 130.398438 3.261719 129.769531 2.710938 C 129.140625 2.160156 128.273438 2.003906 127.410156 2.082031 L 2.75 18.667969 C 1.886719 18.746094 1.179688 19.21875 0.707031 19.847656 C 0.234375 20.476562 0 21.339844 0.078125 22.203125 L 3.378906 47.121094 C 3.378906 47.121094 3.378906 47.199219 3.378906 47.199219 L 51.796875 364.269531 C 52.03125 365.84375 53.371094 366.945312 54.863281 366.945312 C 55.019531 366.945312 55.175781 366.945312 55.253906 366.945312 L 123.792969 357.824219 C 124.503906 357.746094 125.132812 357.355469 125.601562 356.882812 Z M 235.722656 56.945312 C 215.050781 54.980469 198.464844 39.261719 195.320312 18.746094 L 193.828125 8.765625 L 285.945312 17.566406 L 282.566406 27.078125 C 275.726562 46.648438 256.472656 58.910156 235.722656 56.945312 Z M 156.726562 228.136719 L 197.363281 274.429688 L 185.890625 286.222656 L 145.566406 240.242188 Z M 141.242188 244.878906 L 181.410156 290.703125 L 126.703125 346.742188 L 128.746094 258.398438 Z M 127.644531 27.46875 L 102.730469 30.773438 L 100.214844 12.066406 L 125.132812 8.765625 Z M 40.320312 39.023438 L 37.804688 20.316406 L 62.800781 17.015625 L 65.316406 35.722656 Z M 71.527344 34.859375 L 69.011719 16.230469 L 93.925781 12.929688 L 96.441406 31.636719 Z M 31.675781 21.183594 L 34.191406 39.890625 L 9.273438 43.191406 L 6.679688 24.484375 Z M 57.535156 360.261719 L 10.0625 49.398438 L 129.375 33.601562 L 131.496094 37.609375 C 150.046875 73.136719 147.769531 115.972656 125.523438 149.300781 C 125.210938 149.773438 124.972656 150.402344 124.972656 150.949219 L 120.335938 351.851562 Z M 57.535156 360.261719 " fill-opacity="1" fill-rule="nonzero"/><path fill="#ffffff" d="M 283.351562 190.722656 C 272.585938 190.722656 262.050781 192.609375 251.992188 196.222656 L 196.578125 172.09375 C 195.398438 171.621094 194.0625 171.859375 193.199219 172.644531 C 192.253906 173.507812 191.941406 174.84375 192.414062 176.023438 L 210.726562 226.800781 C 205.460938 233.714844 201.214844 241.339844 198.148438 249.4375 L 204.046875 251.636719 C 207.109375 243.542969 211.355469 236.074219 216.699219 229.238281 C 217.40625 228.371094 217.5625 227.273438 217.171875 226.25 L 200.742188 180.660156 L 250.65625 202.433594 C 251.441406 202.75 252.226562 202.75 253.011719 202.511719 C 262.679688 198.816406 272.898438 196.933594 283.351562 196.933594 C 330.199219 196.933594 368.242188 234.972656 368.242188 281.820312 C 368.242188 328.664062 330.199219 366.707031 283.351562 366.707031 C 263.9375 366.707031 244.996094 360.027344 229.984375 347.84375 C 215.128906 335.816406 204.675781 319.074219 200.585938 300.527344 L 194.457031 301.941406 C 198.9375 321.828125 210.175781 339.828125 226.054688 352.71875 C 242.246094 365.765625 262.601562 372.996094 283.429688 372.996094 C 333.734375 372.996094 374.605469 332.125 374.605469 281.820312 C 374.605469 231.515625 333.65625 190.722656 283.351562 190.722656 Z M 283.351562 190.722656 " fill-opacity="1" fill-rule="nonzero"/><path fill="#ffffff" d="M 248.769531 212.730469 L 248.769531 228.449219 L 239.335938 228.449219 C 230.691406 228.449219 223.617188 235.523438 223.617188 244.171875 L 223.617188 319.625 C 223.617188 328.273438 230.691406 335.347656 239.335938 335.347656 L 327.367188 335.347656 C 336.015625 335.347656 343.089844 328.273438 343.089844 319.625 L 343.089844 244.171875 C 343.089844 235.523438 336.015625 228.449219 327.367188 228.449219 L 317.9375 228.449219 L 317.9375 212.730469 L 311.648438 212.730469 L 311.648438 228.449219 L 255.054688 228.449219 L 255.054688 212.730469 Z M 327.367188 329.058594 L 239.335938 329.058594 C 234.148438 329.058594 229.90625 324.8125 229.90625 319.625 L 229.90625 259.890625 L 336.800781 259.890625 L 336.800781 319.625 C 336.800781 324.8125 332.554688 329.058594 327.367188 329.058594 Z M 311.648438 234.738281 L 311.648438 244.171875 L 317.9375 244.171875 L 317.9375 234.738281 L 327.367188 234.738281 C 332.554688 234.738281 336.800781 238.984375 336.800781 244.171875 L 336.800781 253.601562 L 229.90625 253.601562 L 229.90625 244.171875 C 229.90625 238.984375 234.148438 234.738281 239.335938 234.738281 L 248.769531 234.738281 L 248.769531 244.171875 L 255.054688 244.171875 L 255.054688 234.738281 Z M 311.648438 234.738281 " fill-opacity="1" fill-rule="nonzero"/><path fill="#ffffff" d="M 308.503906 278.753906 C 299.542969 278.753906 291.132812 282.210938 284.847656 288.578125 L 283.351562 290.074219 L 281.859375 288.578125 C 275.492188 282.210938 267.082031 278.753906 258.199219 278.753906 C 249.554688 278.753906 242.480469 285.828125 242.480469 294.472656 C 242.480469 303.121094 249.554688 310.195312 258.199219 310.195312 C 267.160156 310.195312 275.570312 306.734375 281.859375 300.371094 L 283.351562 298.875 L 284.847656 300.371094 C 291.210938 306.734375 299.621094 310.195312 308.503906 310.195312 C 317.152344 310.195312 324.222656 303.121094 324.222656 294.472656 C 324.222656 285.828125 317.152344 278.753906 308.503906 278.753906 Z M 277.457031 295.96875 C 272.347656 301.078125 265.511719 303.90625 258.199219 303.90625 C 253.011719 303.90625 248.769531 299.660156 248.769531 294.472656 C 248.769531 289.285156 253.011719 285.042969 258.199219 285.042969 C 265.433594 285.042969 272.269531 287.871094 277.457031 292.980469 L 278.949219 294.472656 Z M 308.503906 303.90625 C 301.273438 303.90625 294.433594 301.078125 289.246094 295.96875 L 287.753906 294.472656 L 289.246094 292.980469 C 294.355469 287.871094 301.195312 285.042969 308.503906 285.042969 C 313.691406 285.042969 317.9375 289.285156 317.9375 294.472656 C 317.9375 299.660156 313.691406 303.90625 308.503906 303.90625 Z M 308.503906 303.90625 " fill-opacity="1" fill-rule="nonzero"/><path fill="#ffffff" d="M 117.035156 54.117188 C 116.328125 53.566406 115.464844 53.25 114.597656 53.410156 L 50.148438 62.054688 C 49.28125 62.210938 48.496094 62.683594 47.945312 63.390625 C 47.394531 64.097656 47.316406 65.042969 47.472656 65.90625 L 61.152344 118.804688 C 61.386719 119.746094 62.09375 120.53125 62.957031 120.925781 L 90.78125 132.792969 C 91.175781 132.953125 91.570312 133.03125 92.039062 133.03125 C 92.746094 133.03125 93.457031 132.792969 94.003906 132.324219 L 117.742188 113.539062 C 118.527344 112.910156 118.921875 112.042969 118.921875 111.023438 L 118.136719 56.394531 C 118.136719 55.53125 117.742188 54.746094 117.035156 54.117188 Z M 91.492188 126.269531 L 66.808594 115.738281 L 58.320312 82.882812 L 104.539062 76.675781 L 103.671875 70.464844 L 56.671875 76.753906 L 54.390625 67.792969 L 111.847656 60.089844 L 112.554688 109.609375 Z M 91.492188 126.269531 " fill-opacity="1" fill-rule="nonzero"/></svg>