<svg xmlns="http://www.w3.org/2000/svg" xmlns:xlink="http://www.w3.org/1999/xlink" width="520" zoomAndPan="magnify" viewBox="0 0 390 359.999987" height="480" preserveAspectRatio="xMidYMid meet" version="1.0"><defs><clipPath id="9393ebdeba"><path d="M 0 9.375 L 390 9.375 L 390 350.625 L 0 350.625 Z M 0 9.375 " clip-rule="nonzero"/></clipPath><clipPath id="c1c75a7099"><path d="M 15.460938 63.863281 C -16.160156 115.957031 6.117188 166.664062 34.113281 193.578125 L 197.804688 350.625 L 358.042969 194.140625 C 384.082031 165.1875 394.0625 134.480469 388.519531 100.285156 C 380.863281 52.984375 341.882812 16.285156 293.730469 11.042969 C 264.195312 7.863281 235.667969 16.222656 213.402344 34.722656 C 207.40625 39.703125 202.050781 45.265625 197.382812 51.316406 C 191.84375 44.429688 185.347656 38.128906 178.003906 32.542969 C 152.398438 13.085938 119.804688 5.359375 88.5 11.367188 C 58.847656 17.097656 32.230469 36.222656 15.460938 63.863281 Z M 15.460938 63.863281 " clip-rule="nonzero"/></clipPath></defs><g clip-path="url(#9393ebdeba)"><g clip-path="url(#c1c75a7099)"><path stroke-linecap="butt" transform="matrix(0.75, 0, 0, 0.75, 0.00000725833, 9.374999)" fill="none" stroke-linejoin="miter" d="M 20.614575 72.651048 C -21.546886 142.109387 8.156241 209.718768 45.484369 245.604187 L 263.739594 455.000037 L 477.390653 246.354187 C 512.109406 207.750017 525.416698 166.807306 518.026073 121.213552 C 507.817739 58.145839 455.843776 9.213543 391.640646 2.223959 C 352.260435 -2.015624 314.223973 9.13021 284.536471 33.796879 C 276.541679 40.437504 269.401053 47.854171 263.177094 55.92188 C 255.791677 46.739588 247.130218 38.338546 237.338551 30.890628 C 203.197923 4.947918 159.739586 -5.354166 118 2.656251 C 78.463538 10.296877 42.973952 35.796879 20.614575 72.651048 Z M 20.614575 72.651048 " stroke="#ffffff" stroke-width="20" stroke-opacity="1" stroke-miterlimit="4"/></g></g></svg>